%TF.GenerationSoftware,KiCad,Pcbnew,7.0.6*%
%TF.CreationDate,2024-02-07T23:43:32-05:00*%
%TF.ProjectId,USB_Telegraph,5553425f-5465-46c6-9567-726170682e6b,rev?*%
%TF.SameCoordinates,Original*%
%TF.FileFunction,Paste,Top*%
%TF.FilePolarity,Positive*%
%FSLAX46Y46*%
G04 Gerber Fmt 4.6, Leading zero omitted, Abs format (unit mm)*
G04 Created by KiCad (PCBNEW 7.0.6) date 2024-02-07 23:43:32*
%MOMM*%
%LPD*%
G01*
G04 APERTURE LIST*
G04 Aperture macros list*
%AMRoundRect*
0 Rectangle with rounded corners*
0 $1 Rounding radius*
0 $2 $3 $4 $5 $6 $7 $8 $9 X,Y pos of 4 corners*
0 Add a 4 corners polygon primitive as box body*
4,1,4,$2,$3,$4,$5,$6,$7,$8,$9,$2,$3,0*
0 Add four circle primitives for the rounded corners*
1,1,$1+$1,$2,$3*
1,1,$1+$1,$4,$5*
1,1,$1+$1,$6,$7*
1,1,$1+$1,$8,$9*
0 Add four rect primitives between the rounded corners*
20,1,$1+$1,$2,$3,$4,$5,0*
20,1,$1+$1,$4,$5,$6,$7,0*
20,1,$1+$1,$6,$7,$8,$9,0*
20,1,$1+$1,$8,$9,$2,$3,0*%
%AMRotRect*
0 Rectangle, with rotation*
0 The origin of the aperture is its center*
0 $1 length*
0 $2 width*
0 $3 Rotation angle, in degrees counterclockwise*
0 Add horizontal line*
21,1,$1,$2,0,0,$3*%
G04 Aperture macros list end*
%ADD10RoundRect,0.135000X0.226274X0.035355X0.035355X0.226274X-0.226274X-0.035355X-0.035355X-0.226274X0*%
%ADD11RoundRect,0.140000X0.219203X0.021213X0.021213X0.219203X-0.219203X-0.021213X-0.021213X-0.219203X0*%
%ADD12RoundRect,0.135000X0.135000X0.185000X-0.135000X0.185000X-0.135000X-0.185000X0.135000X-0.185000X0*%
%ADD13RoundRect,0.150000X0.512500X0.150000X-0.512500X0.150000X-0.512500X-0.150000X0.512500X-0.150000X0*%
%ADD14RoundRect,0.250000X-0.362500X-1.075000X0.362500X-1.075000X0.362500X1.075000X-0.362500X1.075000X0*%
%ADD15RoundRect,0.135000X-0.135000X-0.185000X0.135000X-0.185000X0.135000X0.185000X-0.135000X0.185000X0*%
%ADD16RoundRect,0.140000X-0.021213X0.219203X-0.219203X0.021213X0.021213X-0.219203X0.219203X-0.021213X0*%
%ADD17RoundRect,0.140000X0.021213X-0.219203X0.219203X-0.021213X-0.021213X0.219203X-0.219203X0.021213X0*%
%ADD18RoundRect,0.135000X0.185000X-0.135000X0.185000X0.135000X-0.185000X0.135000X-0.185000X-0.135000X0*%
%ADD19RoundRect,0.140000X-0.170000X0.140000X-0.170000X-0.140000X0.170000X-0.140000X0.170000X0.140000X0*%
%ADD20RotRect,1.400000X1.200000X315.000000*%
%ADD21RoundRect,0.150000X-0.587500X-0.150000X0.587500X-0.150000X0.587500X0.150000X-0.587500X0.150000X0*%
%ADD22RoundRect,0.150000X0.309359X0.521491X-0.521491X-0.309359X-0.309359X-0.521491X0.521491X0.309359X0*%
%ADD23RoundRect,0.135000X0.035355X-0.226274X0.226274X-0.035355X-0.035355X0.226274X-0.226274X0.035355X0*%
%ADD24R,2.000000X1.300000*%
%ADD25R,2.000000X2.000000*%
%ADD26RoundRect,0.250000X-0.300000X-0.300000X0.300000X-0.300000X0.300000X0.300000X-0.300000X0.300000X0*%
%ADD27R,0.740000X2.400000*%
%ADD28RoundRect,0.140000X-0.219203X-0.021213X-0.021213X-0.219203X0.219203X0.021213X0.021213X0.219203X0*%
%ADD29RoundRect,0.135000X-0.185000X0.135000X-0.185000X-0.135000X0.185000X-0.135000X0.185000X0.135000X0*%
%ADD30RoundRect,0.075000X0.415425X0.521491X-0.521491X-0.415425X-0.415425X-0.521491X0.521491X0.415425X0*%
%ADD31RoundRect,0.075000X-0.415425X0.521491X-0.521491X0.415425X0.415425X-0.521491X0.521491X-0.415425X0*%
%ADD32R,1.240000X0.600000*%
%ADD33R,1.240000X0.300000*%
G04 APERTURE END LIST*
D10*
%TO.C,R2*%
X133911523Y-108936345D03*
X133190275Y-108215097D03*
%TD*%
D11*
%TO.C,C3*%
X132492348Y-107546179D03*
X131813526Y-106867357D03*
%TD*%
D12*
%TO.C,R8*%
X135134173Y-117854065D03*
X134114173Y-117854065D03*
%TD*%
D13*
%TO.C,U4*%
X113532500Y-120533200D03*
X113532500Y-119583200D03*
X113532500Y-118633200D03*
X111257500Y-118633200D03*
X111257500Y-119583200D03*
X111257500Y-120533200D03*
%TD*%
D14*
%TO.C,R10*%
X110234900Y-105638600D03*
X114859900Y-105638600D03*
%TD*%
D15*
%TO.C,R9*%
X134110000Y-116840000D03*
X135130000Y-116840000D03*
%TD*%
D16*
%TO.C,C10*%
X122347724Y-117957101D03*
X121668902Y-118635923D03*
%TD*%
D17*
%TO.C,C6*%
X134509189Y-115071211D03*
X135188011Y-114392389D03*
%TD*%
D18*
%TO.C,R1*%
X126288800Y-105486200D03*
X126288800Y-104466200D03*
%TD*%
%TO.C,R6*%
X108127800Y-114429000D03*
X108127800Y-113409000D03*
%TD*%
D19*
%TO.C,C7*%
X108102400Y-109298800D03*
X108102400Y-110258800D03*
%TD*%
D20*
%TO.C,Y1*%
X133910377Y-106526890D03*
X135466012Y-108082525D03*
X136668093Y-106880444D03*
X135112458Y-105324809D03*
%TD*%
D21*
%TO.C,Q1*%
X135036960Y-120642859D03*
X135036960Y-122542859D03*
X136911960Y-121592859D03*
%TD*%
D16*
%TO.C,C2*%
X133507977Y-104514508D03*
X132829155Y-105193330D03*
%TD*%
D22*
%TO.C,U2*%
X121842211Y-116420822D03*
X120498708Y-115077319D03*
X119844634Y-117074896D03*
%TD*%
D15*
%TO.C,R12*%
X127963200Y-102870000D03*
X128983200Y-102870000D03*
%TD*%
D16*
%TO.C,C5*%
X123275411Y-109871189D03*
X122596589Y-110550011D03*
%TD*%
D23*
%TO.C,R3*%
X124629551Y-117568011D03*
X125350799Y-116846763D03*
%TD*%
D10*
%TO.C,R7*%
X125272497Y-119906754D03*
X124551249Y-119185506D03*
%TD*%
D12*
%TO.C,R13*%
X128932400Y-104038400D03*
X127912400Y-104038400D03*
%TD*%
D24*
%TO.C,RV1*%
X139316961Y-119947819D03*
D25*
X143316961Y-121097819D03*
D24*
X139316961Y-122247819D03*
%TD*%
D26*
%TO.C,D1*%
X127791688Y-121969758D03*
X130591688Y-121969758D03*
%TD*%
D27*
%TO.C,J2*%
X119454638Y-106788926D03*
X119454638Y-102888926D03*
X120724638Y-106788926D03*
X120724638Y-102888926D03*
X121994638Y-106788926D03*
X121994638Y-102888926D03*
X123264638Y-106788926D03*
X123264638Y-102888926D03*
X124534638Y-106788926D03*
X124534638Y-102888926D03*
%TD*%
D11*
%TO.C,C8*%
X123021411Y-114614011D03*
X122342589Y-113935189D03*
%TD*%
D28*
%TO.C,C4*%
X126660589Y-118278589D03*
X127339411Y-118957411D03*
%TD*%
D29*
%TO.C,R5*%
X108129249Y-111299008D03*
X108129249Y-112319008D03*
%TD*%
D15*
%TO.C,R11*%
X132300229Y-120642859D03*
X133320229Y-120642859D03*
%TD*%
D16*
%TO.C,C1*%
X137398544Y-108405075D03*
X136719722Y-109083897D03*
%TD*%
D23*
%TO.C,R4*%
X125335511Y-118266767D03*
X126056759Y-117545519D03*
%TD*%
D30*
%TO.C,U1*%
X133887876Y-111501212D03*
X133534322Y-111147658D03*
X133180769Y-110794105D03*
X132827215Y-110440551D03*
X132473662Y-110086998D03*
X132120109Y-109733445D03*
X131766555Y-109379891D03*
X131413002Y-109026338D03*
X131059449Y-108672785D03*
X130705895Y-108319231D03*
X130352342Y-107965678D03*
X129998788Y-107612124D03*
D31*
X128001212Y-107612124D03*
X127647658Y-107965678D03*
X127294105Y-108319231D03*
X126940551Y-108672785D03*
X126586998Y-109026338D03*
X126233445Y-109379891D03*
X125879891Y-109733445D03*
X125526338Y-110086998D03*
X125172785Y-110440551D03*
X124819231Y-110794105D03*
X124465678Y-111147658D03*
X124112124Y-111501212D03*
D30*
X124112124Y-113498788D03*
X124465678Y-113852342D03*
X124819231Y-114205895D03*
X125172785Y-114559449D03*
X125526338Y-114913002D03*
X125879891Y-115266555D03*
X126233445Y-115620109D03*
X126586998Y-115973662D03*
X126940551Y-116327215D03*
X127294105Y-116680769D03*
X127647658Y-117034322D03*
X128001212Y-117387876D03*
D31*
X129998788Y-117387876D03*
X130352342Y-117034322D03*
X130705895Y-116680769D03*
X131059449Y-116327215D03*
X131413002Y-115973662D03*
X131766555Y-115620109D03*
X132120109Y-115266555D03*
X132473662Y-114913002D03*
X132827215Y-114559449D03*
X133180769Y-114205895D03*
X133534322Y-113852342D03*
X133887876Y-113498788D03*
%TD*%
D32*
%TO.C,J1*%
X106225000Y-109300000D03*
X106225000Y-110100000D03*
D33*
X106225000Y-111250000D03*
X106225000Y-112250000D03*
X106225000Y-112750000D03*
X106225000Y-113750000D03*
D32*
X106225000Y-114900000D03*
X106225000Y-115700000D03*
X106225000Y-115700000D03*
X106225000Y-114900000D03*
D33*
X106225000Y-114250000D03*
X106225000Y-113250000D03*
X106225000Y-111750000D03*
X106225000Y-110750000D03*
D32*
X106225000Y-110100000D03*
X106225000Y-109300000D03*
%TD*%
M02*
