M48
; DRILL file {KiCad 7.0.6} date Wed Feb  7 23:43:34 2024
; FORMAT={-:-/ absolute / inch / decimal}
; #@! TF.CreationDate,2024-02-07T23:43:34-05:00
; #@! TF.GenerationSoftware,Kicad,Pcbnew,7.0.6
; #@! TF.FileFunction,Plated,1,2,PTH
FMAT,2
INCH
; #@! TA.AperFunction,Plated,PTH,ViaDrill
T1C0.0059
; #@! TA.AperFunction,Plated,PTH,ViaDrill
T2C0.0098
; #@! TA.AperFunction,Plated,PTH,ComponentDrill
T3C0.0236
; #@! TA.AperFunction,Plated,PTH,ComponentDrill
T4C0.0394
; #@! TA.AperFunction,Plated,PTH,ComponentDrill
T5C0.1614
%
G90
G05
T1
X4.1027Y-4.5206
X4.1072Y-4.6387
X4.1356Y-4.7369
X4.148Y-4.4
X4.148Y-4.439
X4.1527Y-4.671
X4.2066Y-4.7352
X4.2571Y-4.4461
X4.2764Y-4.7335
X4.5263Y-4.8391
X4.5297Y-4.7744
X4.5762Y-4.7341
X4.6117Y-4.6722
X4.6188Y-4.7761
X4.6199Y-4.8391
X4.627Y-4.6058
X4.6917Y-4.5743
X4.6977Y-4.8391
X4.703Y-4.107
X4.7062Y-4.4995
X4.7104Y-4.7156
X4.7143Y-4.4155
X4.7283Y-4.6722
X4.7364Y-4.4387
X4.7375Y-4.3769
X4.7434Y-4.2787
X4.753Y-4.107
X4.7585Y-4.3962
X4.7608Y-4.4597
X4.7676Y-4.3052
X4.7721Y-4.8391
X4.7823Y-4.42
X4.7947Y-4.7156
X4.7986Y-4.334
X4.803Y-4.106
X4.8096Y-4.4467
X4.844Y-4.5457
X4.8445Y-4.2937
X4.8483Y-4.6663
X4.8487Y-4.8391
X4.8516Y-4.7732
X4.8526Y-4.6101
X4.8633Y-4.5646
X4.878Y-4.521
X4.8803Y-4.5847
X4.8823Y-4.3298
X4.893Y-4.536
X4.8933Y-4.2828
X4.8954Y-4.6017
X4.9077Y-4.299
X4.912Y-4.555
X4.9123Y-4.7744
X4.914Y-4.8391
X4.927Y-4.571
X4.938Y-4.452
X4.939Y-4.093
X4.948Y-4.4
X4.966Y-4.48
X4.9788Y-4.8391
X4.9816Y-4.7732
X4.983Y-4.367
X4.9833Y-4.7261
X4.9872Y-4.6188
X4.996Y-4.509
X5.0Y-4.384
X5.001Y-4.092
X5.004Y-4.05
X5.019Y-4.4034
X5.019Y-4.47
X5.019Y-4.533
X5.026Y-4.139
X5.0321Y-4.3122
X5.036Y-4.662
X5.04Y-4.553
X5.057Y-4.511
X5.06Y-4.452
X5.061Y-4.387
X5.0628Y-4.2807
X5.0653Y-4.3352
X5.066Y-4.179
X5.077Y-4.7244
X5.081Y-4.258
X5.0837Y-4.1618
X5.0855Y-4.8022
X5.0855Y-4.8448
X5.0951Y-4.3071
X5.1028Y-4.3829
X5.1036Y-4.2209
X5.106Y-4.559
X5.107Y-4.494
X5.126Y-4.451
X5.1266Y-4.3412
X5.13Y-4.4075
X5.142Y-4.529
X5.1553Y-4.7261
X5.1564Y-4.4475
X5.1572Y-4.3701
X5.158Y-4.336
X5.171Y-4.495
X5.176Y-4.665
X5.177Y-4.694
X5.183Y-4.63
X5.1913Y-4.4773
X5.1921Y-4.4041
X5.2117Y-4.4501
X5.221Y-4.209
X5.236Y-4.706
X5.2365Y-4.7897
X5.249Y-4.682
X5.251Y-4.575
X5.275Y-4.096
X5.3262Y-4.7897
X5.3915Y-4.8272
X5.425Y-4.252
X5.547Y-4.681
X5.55Y-4.659
X5.6186Y-4.7074
X5.6186Y-4.8283
X5.629Y-4.681
X5.63Y-4.659
T2
X3.9752Y-3.9579
X3.9755Y-4.0684
X3.9755Y-4.1684
X3.9755Y-4.3684
X3.9755Y-4.4684
X3.98Y-4.9
X3.9808Y-4.7004
X3.9808Y-4.8004
X4.0752Y-3.9581
X4.0755Y-4.0684
X4.0755Y-4.1684
X4.0755Y-4.2684
X4.0768Y-4.3684
X4.08Y-4.9
X4.0808Y-4.7004
X4.0808Y-4.8004
X4.1752Y-3.9581
X4.1755Y-4.0684
X4.1755Y-4.1684
X4.18Y-4.9
X4.1808Y-4.8004
X4.218Y-4.5551
X4.224Y-4.303
X4.2396Y-4.663
X4.2485Y-4.6017
X4.2752Y-3.9581
X4.2755Y-4.0684
X4.2755Y-4.1684
X4.28Y-4.9
X4.2808Y-4.8004
X4.3059Y-4.6579
X4.3353Y-4.2953
X4.3752Y-3.9581
X4.3755Y-4.0684
X4.38Y-4.9
X4.3808Y-4.8004
X4.4277Y-4.1524
X4.4752Y-3.9581
X4.4755Y-4.0684
X4.48Y-4.9
X4.488Y-4.804
X4.5221Y-4.7025
X4.5752Y-3.9581
X4.5755Y-4.0684
X4.5772Y-4.1684
X4.58Y-4.9
X4.6608Y-4.2699
X4.6615Y-4.1701
X4.6752Y-3.9581
X4.68Y-4.9
X4.7752Y-3.9581
X4.78Y-4.9
X4.8752Y-3.9581
X4.88Y-4.9
X4.9752Y-3.9581
X4.98Y-4.9
X5.058Y-4.576
X5.0752Y-3.9581
X5.08Y-4.9
X5.1752Y-3.9581
X5.1755Y-4.0684
X5.1755Y-4.1684
X5.18Y-4.9
X5.257Y-4.825
X5.2752Y-3.9581
X5.2755Y-4.0684
X5.28Y-4.9
X5.3527Y-4.3323
X5.3527Y-4.4038
X5.354Y-4.6
X5.3553Y-4.474
X5.3752Y-3.9581
X5.3755Y-4.0684
X5.38Y-4.9
X5.3897Y-4.5442
X5.4548Y-4.6055
X5.4752Y-3.9581
X5.4755Y-4.0684
X5.4755Y-4.1684
X5.48Y-4.9
X5.5752Y-3.9581
X5.5755Y-4.0684
X5.5755Y-4.1684
X5.58Y-4.9
X5.6752Y-3.9581
X5.6755Y-4.0684
X5.6755Y-4.1684
X5.68Y-4.9
X5.7752Y-3.9581
X5.7755Y-4.0684
X5.7755Y-4.1684
X5.78Y-4.9
X5.7808Y-4.7004
X5.7808Y-4.8004
X5.8327Y-4.2391
X5.8752Y-3.9581
X5.8755Y-4.0684
X5.8755Y-4.1684
X5.88Y-4.9
X5.8808Y-4.7004
X5.8808Y-4.8004
T4
X5.8442Y-4.3288
X5.8442Y-4.4288
X5.8442Y-4.5288
T5
X4.5079Y-4.4291
X5.5906Y-4.4291
T3
G00X4.0089Y-4.2591
M15
G01X3.9774Y-4.2591
M16
G05
G00X4.0089Y-4.5992
M15
G01X3.9774Y-4.5992
M16
G05
G00X4.1801Y-4.2591
M15
G01X4.1368Y-4.2591
M16
G05
G00X4.1801Y-4.5992
M15
G01X4.1368Y-4.5992
M16
G05
T0
M30
